<svg aria-hidden="true" style="position: absolute; width: 0; height: 0; overflow: hidden;" version="1.1" xmlns="http://www.w3.org/2000/svg" xmlns:xlink="http://www.w3.org/1999/xlink">
<defs>
<symbol id="icon-Petrol" viewBox="0 0 30 32">
<path d="M26.95 8.050l0.016-0.016-6.2-6.2-1.766 1.766 3.516 3.516c-1.583 0.61-2.686 2.119-2.686 3.886 0 1.151 0.468 2.192 1.223 2.944l0 0c0.754 0.753 1.795 1.218 2.944 1.218 0.603 0 1.177-0.128 1.694-0.359l-0.026 0.011v12.018c0 0.92-0.746 1.666-1.666 1.666s-1.666-0.746-1.666-1.666v0-7.5c0-1.841-1.493-3.334-3.334-3.334v0h-1.666v-11.666c0-1.841-1.493-3.334-3.334-3.334v0h-10c-1.841 0-3.334 1.493-3.334 3.334v0 26.666h16.668v-12.5h2.5v8.334c0 2.301 1.865 4.166 4.166 4.166s4.166-1.865 4.166-4.166v0-15.834c0-1.15-0.466-2.2-1.216-2.95zM14 18.5v9.166h-10v-11.666h10v2.5zM14 12.666h-10v-8.332h10v8.332zM24 12.666c-0.92 0-1.666-0.746-1.666-1.666s0.746-1.666 1.666-1.666v0c0.92 0 1.666 0.746 1.666 1.666s-0.746 1.666-1.666 1.666v0z"></path>
</symbol>
<symbol id="icon-heart" viewBox="0 0 36 32">
<path stroke-linejoin="round" stroke-linecap="round" stroke-miterlimit="4" stroke-width="3.3455" d="M31.040 5.251c-1.448-1.449-3.448-2.344-5.658-2.344s-4.21 0.896-5.658 2.344l-1.542 1.542-1.542-1.542c-1.448-1.448-3.449-2.344-5.658-2.344-4.419 0-8.002 3.583-8.002 8.002 0 2.21 0.896 4.21 2.344 5.658l12.858 12.858 12.858-12.858c1.449-1.448 2.344-3.448 2.344-5.658s-0.896-4.21-2.344-5.658l-0-0z"></path>
</symbol>
<symbol id="icon-close-x" viewBox="0 0 32 32">
<path stroke-linejoin="round" stroke-linecap="round" stroke-miterlimit="4" stroke-width="3" d="M24 8l-16 16M8 8l16 16"></path>
</symbol>
<symbol id="icon-icon-park-outline_cd" viewBox="0 0 32 32">
<path stroke-linejoin="miter" stroke-linecap="butt" stroke-miterlimit="4" stroke-width="2.4" d="M16 28c6.627 0 12-5.373 12-12s-5.373-12-12-12v0c-6.627 0-12 5.373-12 12s5.373 12 12 12v0z"></path>
<path stroke-linejoin="miter" stroke-linecap="round" stroke-miterlimit="4" stroke-width="2.4" d="M8.667 16c0-4.050 3.283-7.333 7.333-7.333v0"></path>
<path stroke-linejoin="miter" stroke-linecap="butt" stroke-miterlimit="4" stroke-width="2.4" d="M16 19.333c1.841 0 3.333-1.492 3.333-3.333s-1.492-3.333-3.333-3.333v0c-1.841 0-3.333 1.492-3.333 3.333s1.492 3.333 3.333 3.333v0z"></path>
</symbol>
<symbol id="icon-date" viewBox="0 0 32 32">
<path stroke-linejoin="round" stroke-linecap="round" stroke-miterlimit="4" stroke-width="2.4" d="M25.333 5.333h-18.666c-1.472 0-2.667 1.195-2.667 2.667v18.667c0 1.472 1.194 2.666 2.667 2.666h18.666c1.472 0 2.667-1.194 2.667-2.666v-18.667c0-1.472-1.194-2.667-2.667-2.667zM21.334 2.667v5.333M10.667 2.667v5.333M4 13.333h24"></path>
</symbol>
<symbol id="icon-beds" viewBox="0 0 32 32">
<path stroke-linejoin="round" stroke-linecap="round" stroke-miterlimit="4" stroke-width="2.24" d="M3 26v-7c0.006-2.207 1.793-3.994 3.999-4h18.001c2.207 0.006 3.994 1.793 4 3.999v7.001M24 15h-18v-6.501c0.005-1.379 1.122-2.496 2.5-2.499h15c1.379 0.005 2.496 1.122 2.499 2.5v6.5h-2z"></path>
<path stroke-linejoin="round" stroke-linecap="round" stroke-miterlimit="4" stroke-width="2.24" d="M3 26v-0.501c0.003-0.827 0.673-1.497 1.501-1.499h22.999c0.828 0.002 1.499 0.673 1.501 1.501v0.499M7 15v-1c0.004-1.103 0.897-1.996 2-2h5c1.103 0.004 1.996 0.897 2 2v0M16 14v1M16 14c0.003-1.103 0.897-1.997 2-2h5c1.103 0.004 1.996 0.897 2 2v1"></path>
</symbol>
<symbol id="icon-Radio" viewBox="0 0 32 32">
<path stroke-linejoin="miter" stroke-linecap="butt" stroke-miterlimit="4" stroke-width="2.3111" d="M1.186 18.964c0-5.588 0-8.382 1.735-10.116 1.737-1.737 4.53-1.737 10.116-1.737h5.925c5.588 0 8.382 0 10.116 1.737 1.737 1.733 1.737 4.528 1.737 10.116 0 5.586 0 8.38-1.735 10.116s-4.53 1.735-10.116 1.735h-5.929c-5.586 0-8.38 0-10.116-1.735s-1.735-4.53-1.735-10.116z"></path>
<path stroke-linejoin="miter" stroke-linecap="butt" stroke-miterlimit="4" stroke-width="2.3111" d="M5.63 14.519c0-1.635 1.325-2.962 2.96-2.964h14.816c0.022-0.001 0.047-0.001 0.073-0.001 1.637 0 2.964 1.327 2.964 2.964s-1.327 2.964-2.964 2.964c-0.026 0-0.051-0-0.076-0.001l0.004 0h-14.816c-1.636 0-2.963-1.326-2.964-2.962v-0zM11.556 23.408c0 1.227-0.995 2.222-2.222 2.222s-2.222-0.995-2.222-2.222v0c0-1.227 0.995-2.222 2.222-2.222s2.222 0.995 2.222 2.222v0z"></path>
<path stroke-linejoin="miter" stroke-linecap="round" stroke-miterlimit="4" stroke-width="2.3111" d="M20.444 15.259v2.222M17.481 23.408h7.408M7.851 7.111l12.594-5.925"></path>
</symbol>
<symbol id="icon-Kitchen" viewBox="0 0 25 32">
<path stroke-linejoin="round" stroke-linecap="round" stroke-miterlimit="4" stroke-width="2.6667" d="M22.814 20.444v-17.778c-7.134 6.805-7.44 12.324-7.406 17.778h7.406zM22.814 20.444v8.889h-1.481v-4.444M6.519 4.148v25.186M2.075 4.148v4.444c0 2.455 1.99 4.444 4.444 4.444s4.444-1.99 4.444-4.444v0-4.444"></path>
</symbol>
<symbol id="icon-Automatic" viewBox="0 0 30 32">
<path stroke-linejoin="round" stroke-linecap="round" stroke-miterlimit="4" stroke-width="2.6667" d="M23.408 14.519h2.222c1.227 0 2.222-0.995 2.222-2.222s-0.995-2.222-2.222-2.222v0h-2.222v7.406M23.408 23.408v5.925h1.481c1.636 0 2.963-1.326 2.963-2.963s-1.326-2.963-2.963-2.963v0h-1.481zM2.667 5.63c-0.001 0.022-0.001 0.047-0.001 0.073 0 1.637 1.327 2.964 2.964 2.964s2.964-1.327 2.964-2.964c0-0.026-0-0.051-0.001-0.076l0 0.004c-0.041-1.605-1.351-2.891-2.963-2.891s-2.922 1.286-2.963 2.887l-0 0.004z"></path>
<path stroke-linejoin="round" stroke-linecap="round" stroke-miterlimit="4" stroke-width="2.6667" d="M5.63 8.592v4.444c0 0.001 0 0.001 0 0.002 0 0.818 0.663 1.481 1.481 1.481h4.444M11.556 14.519v10.37c0 0.818 0.663 1.481 1.481 1.481v0h4.444M11.556 14.519h5.925"></path>
</symbol>
<symbol id="icon-Hob" viewBox="0 0 43 32">
<path fill="none" stroke="#101828" style="stroke: var(--color1, #101828)" stroke-linejoin="miter" stroke-linecap="butt" stroke-miterlimit="4" stroke-width="3.2" d="M16 2.49h21.333c0.981 0 1.777 0.796 1.777 1.777v0 23.11c0 0.001 0 0.001 0 0.002 0 0.981-0.796 1.777-1.777 1.777h-21.333M16 2.49h-10.667c-0.981 0-1.777 0.796-1.777 1.777v23.11c0 0.001 0 0.001 0 0.002 0 0.981 0.796 1.777 1.777 1.777h10.667M16 2.49v26.667"></path>
<path fill="none" stroke="#101828" style="stroke: var(--color1, #101828)" stroke-linejoin="round" stroke-linecap="round" stroke-miterlimit="4" stroke-width="3.2" d="M9.777 8.71v3.556M32.887 7.823l-10.667 15.11"></path>
<path d="M11.556 17.6c0-0.982-0.796-1.778-1.778-1.778s-1.778 0.796-1.778 1.778v0c0 0.982 0.796 1.778 1.778 1.778s1.778-0.796 1.778-1.778v0zM11.556 22.933c0-0.982-0.796-1.778-1.778-1.778s-1.778 0.796-1.778 1.778v0c0 0.982 0.796 1.778 1.778 1.778s1.778-0.796 1.778-1.778v0z"></path>
</symbol>
<symbol id="icon-air_conditioner" viewBox="0 0 34 32">
<path stroke-linejoin="round" stroke-linecap="round" stroke-miterlimit="4" stroke-width="3.2" d="M29.257 12.19v-6.095c-0.001-1.682-1.364-3.045-3.046-3.046h-18.287c-1.682 0.001-3.045 1.364-3.046 3.046v6.095M3.351 27.428h0.305c2.356 0 4.267-1.91 4.267-4.267v0-3.351M30.78 27.428h-0.303c-2.356 0-4.267-1.91-4.267-4.267v0-3.351M17.067 30.477v-10.667"></path>
</symbol>
<symbol id="icon-adults" viewBox="0 0 46 32">
<path d="M12.953 27.618h-6.286c-0.382 0-0.571-0.19-0.763-0.379-0.19-0.192-0.379-0.571-0.19-0.953 1.143-3.239 4-5.143 7.239-5.143 4 0 7.237-3.429 7.237-7.429s-3.237-7.81-7.237-7.81-7.239 3.429-7.239 7.621c0 1.904 0.761 3.808 1.904 5.143-2.475 1.333-4.379 3.429-5.522 6.286-0.116 0.412-0.183 0.885-0.183 1.374 0 1.125 0.353 2.167 0.955 3.022l-0.011-0.017c0.953 1.335 2.286 2.096 3.81 2.096h6.286c1.143 0 1.904-0.761 1.904-1.904s-0.761-1.906-1.904-1.906zM9.525 13.525c0-2.096 1.522-3.621 3.429-3.621 1.904 0 3.429 1.714 3.429 3.621 0 2.094-1.525 3.618-3.429 3.618-1.906 0-3.429-1.714-3.429-3.618z"></path>
<path d="M43.618 23.81c-1.306-3.439-3.798-6.178-6.965-7.773l-0.082-0.037c1.714-1.525 2.667-3.81 2.667-6.475 0-4.953-3.81-8.953-8.382-8.953s-8.382 4-8.382 8.953c0 2.475 0.953 4.761 2.667 6.475-3.249 1.632-5.741 4.371-7.014 7.712l-0.033 0.098c-0.953 1.714-0.571 3.618 0.379 5.143 0.953 1.522 2.667 2.286 4.382 2.286h15.81c1.714 0 3.429-0.953 4.379-2.286 1.143-1.525 1.335-3.429 0.571-5.143zM26.096 9.714c0-2.857 2.094-5.143 4.571-5.143 2.475 0 4.571 2.286 4.571 5.143s-2.096 5.143-4.571 5.143c-2.478 0-4.571-2.475-4.571-5.143zM39.81 26.857c-0.192 0.19-0.571 0.761-1.143 0.761h-15.81c-0.761 0-1.143-0.571-1.143-0.761-0.219-0.274-0.351-0.626-0.351-1.008 0-0.257 0.060-0.5 0.166-0.715l-0.004 0.010c1.522-4 5.333-6.667 9.333-6.667s7.81 2.667 9.333 6.667c0.192 0.761-0.19 1.525-0.379 1.714z"></path>
</symbol>
</defs>
</svg>
